<mxfile host="app.diagrams.net" agent="Mozilla/5.0 (Windows NT 10.0; Win64; x64) AppleWebKit/537.36 (KHTML, like Gecko) Chrome/132.0.0.0 Safari/537.36" version="26.0.6">
  <diagram name="Page-1" id="hyJgFCHCDeji8TDfh1BZ">
    <mxGraphModel dx="4049" dy="1103" grid="1" gridSize="10" guides="1" tooltips="1" connect="1" arrows="1" fold="1" page="1" pageScale="1" pageWidth="2000" pageHeight="2000" math="0" shadow="0">
      <root>
        <mxCell id="0" />
        <mxCell id="1" parent="0" />
        <mxCell id="HOKdd1KIGp4I5RpGJCPn-2" value="&lt;h1&gt;Sketching User Flow&lt;/h1&gt;" style="text;html=1;align=center;verticalAlign=middle;resizable=0;points=[];autosize=1;strokeColor=none;fillColor=none;" vertex="1" parent="1">
          <mxGeometry x="270" y="20" width="260" height="70" as="geometry" />
        </mxCell>
        <mxCell id="HOKdd1KIGp4I5RpGJCPn-5" value="" style="rounded=0;whiteSpace=wrap;html=1;" vertex="1" parent="1">
          <mxGeometry x="80" y="240" width="160" height="260" as="geometry" />
        </mxCell>
        <mxCell id="HOKdd1KIGp4I5RpGJCPn-6" value="" style="endArrow=none;html=1;rounded=0;entryX=1;entryY=0.5;entryDx=0;entryDy=0;exitX=0;exitY=0.5;exitDx=0;exitDy=0;" edge="1" parent="1" source="HOKdd1KIGp4I5RpGJCPn-5" target="HOKdd1KIGp4I5RpGJCPn-5">
          <mxGeometry width="50" height="50" relative="1" as="geometry">
            <mxPoint x="110" y="369.47" as="sourcePoint" />
            <mxPoint x="190" y="369.47" as="targetPoint" />
            <Array as="points">
              <mxPoint x="150" y="369.47" />
            </Array>
          </mxGeometry>
        </mxCell>
        <mxCell id="HOKdd1KIGp4I5RpGJCPn-7" value="" style="endArrow=none;html=1;rounded=0;entryX=1;entryY=0.5;entryDx=0;entryDy=0;exitX=0;exitY=0.5;exitDx=0;exitDy=0;" edge="1" parent="1">
          <mxGeometry width="50" height="50" relative="1" as="geometry">
            <mxPoint x="80" y="420.53" as="sourcePoint" />
            <mxPoint x="240" y="420.53" as="targetPoint" />
            <Array as="points">
              <mxPoint x="150" y="420" />
            </Array>
          </mxGeometry>
        </mxCell>
        <mxCell id="HOKdd1KIGp4I5RpGJCPn-8" value="" style="endArrow=none;html=1;rounded=0;entryX=1;entryY=0.5;entryDx=0;entryDy=0;exitX=-0.004;exitY=0.691;exitDx=0;exitDy=0;exitPerimeter=0;" edge="1" parent="1" source="HOKdd1KIGp4I5RpGJCPn-5" target="HOKdd1KIGp4I5RpGJCPn-5">
          <mxGeometry width="50" height="50" relative="1" as="geometry">
            <mxPoint x="100" y="390" as="sourcePoint" />
            <mxPoint x="260" y="390" as="targetPoint" />
            <Array as="points">
              <mxPoint x="170" y="389.47" />
            </Array>
          </mxGeometry>
        </mxCell>
        <mxCell id="HOKdd1KIGp4I5RpGJCPn-9" value="" style="endArrow=none;html=1;rounded=0;entryX=0.983;entryY=0.687;entryDx=0;entryDy=0;exitX=0;exitY=0.5;exitDx=0;exitDy=0;entryPerimeter=0;" edge="1" parent="1" source="HOKdd1KIGp4I5RpGJCPn-5" target="HOKdd1KIGp4I5RpGJCPn-5">
          <mxGeometry width="50" height="50" relative="1" as="geometry">
            <mxPoint x="110" y="400" as="sourcePoint" />
            <mxPoint x="270" y="400" as="targetPoint" />
            <Array as="points">
              <mxPoint x="180" y="399.47" />
            </Array>
          </mxGeometry>
        </mxCell>
        <mxCell id="HOKdd1KIGp4I5RpGJCPn-10" value="" style="endArrow=none;html=1;rounded=0;entryX=1;entryY=0.5;entryDx=0;entryDy=0;exitX=0;exitY=0.5;exitDx=0;exitDy=0;" edge="1" parent="1">
          <mxGeometry width="50" height="50" relative="1" as="geometry">
            <mxPoint x="80" y="430.53" as="sourcePoint" />
            <mxPoint x="240" y="430.53" as="targetPoint" />
            <Array as="points">
              <mxPoint x="150" y="430" />
            </Array>
          </mxGeometry>
        </mxCell>
        <mxCell id="HOKdd1KIGp4I5RpGJCPn-11" value="" style="endArrow=none;html=1;rounded=0;entryX=1;entryY=0.5;entryDx=0;entryDy=0;exitX=0;exitY=0.5;exitDx=0;exitDy=0;" edge="1" parent="1">
          <mxGeometry width="50" height="50" relative="1" as="geometry">
            <mxPoint x="80" y="470.53" as="sourcePoint" />
            <mxPoint x="240" y="470.53" as="targetPoint" />
            <Array as="points">
              <mxPoint x="150" y="470" />
            </Array>
          </mxGeometry>
        </mxCell>
        <mxCell id="HOKdd1KIGp4I5RpGJCPn-13" value="" style="endArrow=none;html=1;rounded=0;entryX=1;entryY=1;entryDx=0;entryDy=0;exitX=0;exitY=0.75;exitDx=0;exitDy=0;" edge="1" parent="1" source="HOKdd1KIGp4I5RpGJCPn-5" target="HOKdd1KIGp4I5RpGJCPn-5">
          <mxGeometry width="50" height="50" relative="1" as="geometry">
            <mxPoint x="150" y="440" as="sourcePoint" />
            <mxPoint x="310" y="440" as="targetPoint" />
            <Array as="points" />
          </mxGeometry>
        </mxCell>
        <mxCell id="HOKdd1KIGp4I5RpGJCPn-14" value="" style="endArrow=none;html=1;rounded=0;entryX=1;entryY=0.75;entryDx=0;entryDy=0;exitX=0;exitY=1;exitDx=0;exitDy=0;" edge="1" parent="1" source="HOKdd1KIGp4I5RpGJCPn-5" target="HOKdd1KIGp4I5RpGJCPn-5">
          <mxGeometry width="50" height="50" relative="1" as="geometry">
            <mxPoint x="160" y="450" as="sourcePoint" />
            <mxPoint x="320" y="450" as="targetPoint" />
            <Array as="points" />
          </mxGeometry>
        </mxCell>
        <mxCell id="HOKdd1KIGp4I5RpGJCPn-15" value="" style="endArrow=none;html=1;rounded=0;entryX=0.5;entryY=1;entryDx=0;entryDy=0;" edge="1" parent="1" target="HOKdd1KIGp4I5RpGJCPn-5">
          <mxGeometry width="50" height="50" relative="1" as="geometry">
            <mxPoint x="160" y="430" as="sourcePoint" />
            <mxPoint x="330" y="460" as="targetPoint" />
            <Array as="points">
              <mxPoint x="160" y="480" />
            </Array>
          </mxGeometry>
        </mxCell>
        <mxCell id="HOKdd1KIGp4I5RpGJCPn-16" value="" style="rounded=0;whiteSpace=wrap;html=1;" vertex="1" parent="1">
          <mxGeometry x="90" y="280" width="140" height="30" as="geometry" />
        </mxCell>
        <mxCell id="HOKdd1KIGp4I5RpGJCPn-17" value="" style="shape=flexArrow;endArrow=classic;html=1;rounded=0;" edge="1" parent="1">
          <mxGeometry width="50" height="50" relative="1" as="geometry">
            <mxPoint x="230" y="273" as="sourcePoint" />
            <mxPoint x="280" y="223" as="targetPoint" />
          </mxGeometry>
        </mxCell>
        <mxCell id="HOKdd1KIGp4I5RpGJCPn-18" value="&lt;h3&gt;Search Box&lt;/h3&gt;" style="text;html=1;align=center;verticalAlign=middle;resizable=0;points=[];autosize=1;strokeColor=none;fillColor=none;" vertex="1" parent="1">
          <mxGeometry x="270" y="163" width="100" height="60" as="geometry" />
        </mxCell>
        <mxCell id="HOKdd1KIGp4I5RpGJCPn-19" value="" style="rounded=0;whiteSpace=wrap;html=1;" vertex="1" parent="1">
          <mxGeometry x="200" y="250" width="20" height="20" as="geometry" />
        </mxCell>
        <mxCell id="HOKdd1KIGp4I5RpGJCPn-21" value="" style="shape=flexArrow;endArrow=classic;html=1;rounded=0;" edge="1" parent="1">
          <mxGeometry width="50" height="50" relative="1" as="geometry">
            <mxPoint x="200" y="250" as="sourcePoint" />
            <mxPoint x="190" y="170" as="targetPoint" />
          </mxGeometry>
        </mxCell>
        <mxCell id="HOKdd1KIGp4I5RpGJCPn-22" value="&lt;h3&gt;Shopping Cart&lt;/h3&gt;" style="text;html=1;align=center;verticalAlign=middle;resizable=0;points=[];autosize=1;strokeColor=none;fillColor=none;" vertex="1" parent="1">
          <mxGeometry x="130" y="113" width="120" height="60" as="geometry" />
        </mxCell>
        <mxCell id="HOKdd1KIGp4I5RpGJCPn-23" value="" style="rounded=0;whiteSpace=wrap;html=1;" vertex="1" parent="1">
          <mxGeometry x="90" y="250" width="20" height="20" as="geometry" />
        </mxCell>
        <mxCell id="HOKdd1KIGp4I5RpGJCPn-24" value="" style="shape=flexArrow;endArrow=classic;html=1;rounded=0;" edge="1" parent="1">
          <mxGeometry width="50" height="50" relative="1" as="geometry">
            <mxPoint x="90" y="250" as="sourcePoint" />
            <mxPoint x="80" y="170" as="targetPoint" />
          </mxGeometry>
        </mxCell>
        <mxCell id="HOKdd1KIGp4I5RpGJCPn-25" value="&lt;h3&gt;Menu Cart&lt;/h3&gt;&lt;div&gt;&lt;br&gt;&lt;/div&gt;" style="text;html=1;align=center;verticalAlign=middle;resizable=0;points=[];autosize=1;strokeColor=none;fillColor=none;" vertex="1" parent="1">
          <mxGeometry x="20" y="120" width="90" height="70" as="geometry" />
        </mxCell>
        <mxCell id="HOKdd1KIGp4I5RpGJCPn-26" value="" style="rounded=0;whiteSpace=wrap;html=1;" vertex="1" parent="1">
          <mxGeometry x="360" y="240" width="160" height="260" as="geometry" />
        </mxCell>
        <mxCell id="HOKdd1KIGp4I5RpGJCPn-27" value="" style="endArrow=classic;html=1;rounded=0;exitX=1;exitY=0.25;exitDx=0;exitDy=0;entryX=0.031;entryY=0.404;entryDx=0;entryDy=0;entryPerimeter=0;" edge="1" parent="1" source="HOKdd1KIGp4I5RpGJCPn-23" target="HOKdd1KIGp4I5RpGJCPn-26">
          <mxGeometry width="50" height="50" relative="1" as="geometry">
            <mxPoint x="400" y="420" as="sourcePoint" />
            <mxPoint x="450" y="370" as="targetPoint" />
          </mxGeometry>
        </mxCell>
        <mxCell id="HOKdd1KIGp4I5RpGJCPn-28" value="" style="shape=flexArrow;endArrow=classic;html=1;rounded=0;fillColor=light-dark(transparent,#00FF00);" edge="1" parent="1">
          <mxGeometry width="50" height="50" relative="1" as="geometry">
            <mxPoint x="310" y="330" as="sourcePoint" />
            <mxPoint x="310" y="590" as="targetPoint" />
          </mxGeometry>
        </mxCell>
        <mxCell id="HOKdd1KIGp4I5RpGJCPn-29" value="&lt;font style=&quot;font-size: 14px;&quot;&gt;When user Clicks on Menu Button It will go to next page&lt;/font&gt;" style="text;html=1;align=center;verticalAlign=middle;resizable=0;points=[];autosize=1;strokeColor=none;fillColor=none;" vertex="1" parent="1">
          <mxGeometry x="290" y="590" width="370" height="30" as="geometry" />
        </mxCell>
        <mxCell id="HOKdd1KIGp4I5RpGJCPn-452" value="" style="endArrow=none;html=1;rounded=0;entryX=0.5;entryY=0;entryDx=0;entryDy=0;exitX=0.5;exitY=1;exitDx=0;exitDy=0;" edge="1" parent="1" source="HOKdd1KIGp4I5RpGJCPn-26" target="HOKdd1KIGp4I5RpGJCPn-26">
          <mxGeometry width="50" height="50" relative="1" as="geometry">
            <mxPoint x="670" y="330" as="sourcePoint" />
            <mxPoint x="720" y="280" as="targetPoint" />
          </mxGeometry>
        </mxCell>
        <mxCell id="HOKdd1KIGp4I5RpGJCPn-454" value="" style="endArrow=none;html=1;rounded=0;" edge="1" parent="1">
          <mxGeometry width="50" height="50" relative="1" as="geometry">
            <mxPoint x="380" y="270" as="sourcePoint" />
            <mxPoint x="420" y="270" as="targetPoint" />
          </mxGeometry>
        </mxCell>
        <mxCell id="HOKdd1KIGp4I5RpGJCPn-455" value="" style="endArrow=none;html=1;rounded=0;" edge="1" parent="1">
          <mxGeometry width="50" height="50" relative="1" as="geometry">
            <mxPoint x="380" y="290" as="sourcePoint" />
            <mxPoint x="420" y="290" as="targetPoint" />
          </mxGeometry>
        </mxCell>
        <mxCell id="HOKdd1KIGp4I5RpGJCPn-456" value="" style="endArrow=none;html=1;rounded=0;" edge="1" parent="1">
          <mxGeometry width="50" height="50" relative="1" as="geometry">
            <mxPoint x="380" y="310" as="sourcePoint" />
            <mxPoint x="420" y="310" as="targetPoint" />
          </mxGeometry>
        </mxCell>
        <mxCell id="HOKdd1KIGp4I5RpGJCPn-457" value="" style="endArrow=none;html=1;rounded=0;" edge="1" parent="1">
          <mxGeometry width="50" height="50" relative="1" as="geometry">
            <mxPoint x="380" y="259.55" as="sourcePoint" />
            <mxPoint x="420" y="259.55" as="targetPoint" />
          </mxGeometry>
        </mxCell>
        <mxCell id="HOKdd1KIGp4I5RpGJCPn-458" value="" style="endArrow=none;html=1;rounded=0;" edge="1" parent="1">
          <mxGeometry width="50" height="50" relative="1" as="geometry">
            <mxPoint x="380" y="330" as="sourcePoint" />
            <mxPoint x="420" y="330" as="targetPoint" />
          </mxGeometry>
        </mxCell>
        <mxCell id="HOKdd1KIGp4I5RpGJCPn-459" value="" style="endArrow=none;html=1;rounded=0;" edge="1" parent="1">
          <mxGeometry width="50" height="50" relative="1" as="geometry">
            <mxPoint x="380" y="340" as="sourcePoint" />
            <mxPoint x="420" y="340" as="targetPoint" />
          </mxGeometry>
        </mxCell>
        <mxCell id="HOKdd1KIGp4I5RpGJCPn-460" value="" style="endArrow=none;html=1;rounded=0;" edge="1" parent="1">
          <mxGeometry width="50" height="50" relative="1" as="geometry">
            <mxPoint x="380" y="360" as="sourcePoint" />
            <mxPoint x="420" y="360" as="targetPoint" />
          </mxGeometry>
        </mxCell>
        <mxCell id="HOKdd1KIGp4I5RpGJCPn-461" value="" style="endArrow=none;html=1;rounded=0;" edge="1" parent="1">
          <mxGeometry width="50" height="50" relative="1" as="geometry">
            <mxPoint x="380" y="380" as="sourcePoint" />
            <mxPoint x="420" y="380" as="targetPoint" />
          </mxGeometry>
        </mxCell>
        <mxCell id="HOKdd1KIGp4I5RpGJCPn-462" value="" style="endArrow=none;html=1;rounded=0;" edge="1" parent="1">
          <mxGeometry width="50" height="50" relative="1" as="geometry">
            <mxPoint x="380" y="400" as="sourcePoint" />
            <mxPoint x="420" y="400" as="targetPoint" />
          </mxGeometry>
        </mxCell>
        <mxCell id="HOKdd1KIGp4I5RpGJCPn-463" value="" style="endArrow=none;html=1;rounded=0;" edge="1" parent="1">
          <mxGeometry width="50" height="50" relative="1" as="geometry">
            <mxPoint x="380" y="420" as="sourcePoint" />
            <mxPoint x="420" y="420" as="targetPoint" />
          </mxGeometry>
        </mxCell>
        <mxCell id="HOKdd1KIGp4I5RpGJCPn-464" value="" style="endArrow=none;html=1;rounded=0;" edge="1" parent="1">
          <mxGeometry width="50" height="50" relative="1" as="geometry">
            <mxPoint x="380" y="460" as="sourcePoint" />
            <mxPoint x="420" y="460" as="targetPoint" />
          </mxGeometry>
        </mxCell>
        <mxCell id="HOKdd1KIGp4I5RpGJCPn-465" value="" style="endArrow=none;html=1;rounded=0;" edge="1" parent="1">
          <mxGeometry width="50" height="50" relative="1" as="geometry">
            <mxPoint x="380" y="450" as="sourcePoint" />
            <mxPoint x="420" y="450" as="targetPoint" />
          </mxGeometry>
        </mxCell>
        <mxCell id="HOKdd1KIGp4I5RpGJCPn-466" value="" style="endArrow=none;html=1;rounded=0;" edge="1" parent="1">
          <mxGeometry width="50" height="50" relative="1" as="geometry">
            <mxPoint x="380" y="480" as="sourcePoint" />
            <mxPoint x="420" y="480" as="targetPoint" />
          </mxGeometry>
        </mxCell>
        <mxCell id="HOKdd1KIGp4I5RpGJCPn-467" value="" style="shape=flexArrow;endArrow=classic;html=1;rounded=0;fillColor=light-dark(transparent,#009900);" edge="1" parent="1">
          <mxGeometry width="50" height="50" relative="1" as="geometry">
            <mxPoint x="400" y="250" as="sourcePoint" />
            <mxPoint x="450" y="200" as="targetPoint" />
          </mxGeometry>
        </mxCell>
        <mxCell id="HOKdd1KIGp4I5RpGJCPn-468" value="Many Settings&lt;div&gt;1. user Settings&lt;/div&gt;&lt;div&gt;2. Account Settings&lt;/div&gt;&lt;div&gt;3. and Many More Settings....&lt;/div&gt;" style="text;html=1;align=center;verticalAlign=middle;resizable=0;points=[];autosize=1;strokeColor=none;fillColor=none;" vertex="1" parent="1">
          <mxGeometry x="420" y="128" width="180" height="70" as="geometry" />
        </mxCell>
        <mxCell id="HOKdd1KIGp4I5RpGJCPn-470" value="" style="shape=flexArrow;endArrow=classic;html=1;rounded=0;" edge="1" parent="1">
          <mxGeometry width="50" height="50" relative="1" as="geometry">
            <mxPoint x="150" y="520" as="sourcePoint" />
            <mxPoint x="150" y="620" as="targetPoint" />
          </mxGeometry>
        </mxCell>
        <mxCell id="HOKdd1KIGp4I5RpGJCPn-471" value="" style="rounded=0;whiteSpace=wrap;html=1;" vertex="1" parent="1">
          <mxGeometry x="70" y="650" width="160" height="260" as="geometry" />
        </mxCell>
        <mxCell id="HOKdd1KIGp4I5RpGJCPn-472" value="When user have Actually Searched&lt;div&gt;&amp;nbsp;for Something it will Move Towards the Next page&lt;/div&gt;" style="text;html=1;align=center;verticalAlign=middle;resizable=0;points=[];autosize=1;strokeColor=none;fillColor=none;" vertex="1" parent="1">
          <mxGeometry x="-170" y="550" width="290" height="40" as="geometry" />
        </mxCell>
        <mxCell id="HOKdd1KIGp4I5RpGJCPn-473" value="User Entered Some text to Search a Product" style="rounded=0;whiteSpace=wrap;html=1;" vertex="1" parent="1">
          <mxGeometry x="80" y="690" width="140" height="30" as="geometry" />
        </mxCell>
        <mxCell id="HOKdd1KIGp4I5RpGJCPn-474" value="" style="rounded=0;whiteSpace=wrap;html=1;" vertex="1" parent="1">
          <mxGeometry x="200" y="660" width="20" height="20" as="geometry" />
        </mxCell>
        <mxCell id="HOKdd1KIGp4I5RpGJCPn-475" value="" style="rounded=0;whiteSpace=wrap;html=1;" vertex="1" parent="1">
          <mxGeometry x="80" y="660" width="20" height="20" as="geometry" />
        </mxCell>
        <mxCell id="HOKdd1KIGp4I5RpGJCPn-476" value="" style="whiteSpace=wrap;html=1;aspect=fixed;" vertex="1" parent="1">
          <mxGeometry x="70" y="730" width="80" height="80" as="geometry" />
        </mxCell>
        <mxCell id="HOKdd1KIGp4I5RpGJCPn-477" value="" style="whiteSpace=wrap;html=1;aspect=fixed;" vertex="1" parent="1">
          <mxGeometry x="150" y="730" width="80" height="80" as="geometry" />
        </mxCell>
        <mxCell id="HOKdd1KIGp4I5RpGJCPn-478" value="" style="whiteSpace=wrap;html=1;aspect=fixed;" vertex="1" parent="1">
          <mxGeometry x="70" y="810" width="80" height="80" as="geometry" />
        </mxCell>
        <mxCell id="HOKdd1KIGp4I5RpGJCPn-479" value="" style="whiteSpace=wrap;html=1;aspect=fixed;" vertex="1" parent="1">
          <mxGeometry x="150" y="810" width="80" height="80" as="geometry" />
        </mxCell>
        <mxCell id="HOKdd1KIGp4I5RpGJCPn-480" value="" style="shape=flexArrow;endArrow=classic;html=1;rounded=0;fillColor=light-dark(transparent,#33FF33);strokeColor=light-dark(#000000,#1A1A1A);" edge="1" parent="1">
          <mxGeometry width="50" height="50" relative="1" as="geometry">
            <mxPoint x="220" y="795" as="sourcePoint" />
            <mxPoint x="270" y="745" as="targetPoint" />
          </mxGeometry>
        </mxCell>
        <mxCell id="HOKdd1KIGp4I5RpGJCPn-481" value="Search Results Product List" style="text;html=1;align=center;verticalAlign=middle;resizable=0;points=[];autosize=1;strokeColor=none;fillColor=none;" vertex="1" parent="1">
          <mxGeometry x="260" y="720" width="170" height="30" as="geometry" />
        </mxCell>
      </root>
    </mxGraphModel>
  </diagram>
</mxfile>
